<svg xmlns="http://www.w3.org/2000/svg" version="1.1" viewBox="256.58 237.27 238.82 277.48">
 <g fill="#0079cc">
  <path d="m376.09 455.55 63.082-109.14c27.934-48.469-7.1211-109.14-63.082-109.14s-90.926 60.586-62.898 109.14zm0-182.96c20.258 0 36.723 16.371 36.723 36.723 0 20.348-16.371 36.723-36.723 36.723-20.348 0-36.723-16.371-36.723-36.723s16.465-36.723 36.723-36.723z"/>
  <path d="m427.52 383.59-7.8633 13.688c35.426 8.5078 59.938 27.008 59.938 48.559 0 29.598-46.434 53.555-103.6 53.555s-103.6-23.957-103.6-53.555c0-21.551 24.605-40.145 60.031-48.559l-7.8633-13.688c-40.145 11.098-67.984 34.777-67.984 62.25 0 38.109 53.461 68.91 119.41 68.91 65.949 0 119.41-30.895 119.41-68.91 0.09375-27.473-27.656-51.148-67.891-62.25z"/>
 </g>
</svg>