<svg xmlns="http://www.w3.org/2000/svg" version="1.1" viewBox="161.41 191 429.18 369.99">
 <g fill="#6a717f" fill-rule="evenodd">
  <path d="m555.01 526.64c1.2578 1.1836 2.293 2.5898 3.1836 4.1523h-0.074218c-0.81641-1.4727-1.8516-2.8945-3.1094-4.1523z"/>
  <path d="m541.02 440.11h26.562l22.934 27.688h-49.496z"/>
  <path d="m590.59 475.2v55.594h-24.262c-0.44531-1.2578-1.0352-2.4414-1.7031-3.625-4.8086-8.5078-13.902-13.836-23.598-13.836-9.7617 0-18.797 5.3281-23.598 13.836-0.66406 1.1836-1.2578 2.3672-1.7031 3.625h-134.51c-0.44531-1.2578-1.0352-2.4414-1.7031-3.625-4.8086-8.5078-13.91-13.836-23.598-13.836-9.7695 0-18.797 5.3281-23.531 13.762-0.66406 1.1836-1.332 2.4414-1.7773 3.6992h-27.676v-22.797h205.76v-88.016h42.246l10.5 12.727h-27.816v42.488z"/>
  <path d="m590.59 467.79h-49.57v-27.688h26.629z"/>
  <path d="m590.59 467.79h-49.57v-27.688h26.629z"/>
  <path d="m560.85 540.85c0 11.18-8.8711 20.141-19.824 20.141-10.945 0-19.832-8.9609-19.832-20.141 0-3.6992 0.96094-7.1055 2.6641-10.062 0.88672-1.4727 1.9258-2.8945 3.1094-4.1523 3.5508-3.6992 8.582-5.9141 14.059-5.9141 5.4766 0 10.434 2.2109 13.984 5.9141 1.2578 1.1836 2.293 2.5898 3.1836 4.1523 1.6992 2.9609 2.6562 6.3633 2.6562 10.062z"/>
  <path d="m560.85 540.85c0 11.18-8.8711 20.141-19.824 20.141-10.945 0-19.832-8.9609-19.832-20.141 0-3.6992 0.96094-7.1055 2.6641-10.062 0.88672-1.4727 1.9258-2.8945 3.1094-4.1523 3.5508-3.6992 8.582-5.9141 14.059-5.9141 5.4766 0 10.434 2.2109 13.984 5.9141 1.2578 1.1836 2.293 2.5898 3.1836 4.1523 1.6992 2.9609 2.6562 6.3633 2.6562 10.062z"/>
  <path d="m302.94 384.73h198.36v115.86h-198.36z"/>
  <path d="m302.94 384.73h198.36v115.86h-198.36z"/>
  <path d="m302.94 384.73h198.36v115.86h-198.36z"/>
  <path d="m375.74 540.85c0 11.18-8.8789 20.141-19.824 20.141-10.953 0-19.832-8.9609-19.832-20.141 0-3.6992 0.96094-7.1055 2.7383-10.062 3.3281-6.0664 9.7617-10.055 17.094-10.055 7.3242 0 13.758 3.9883 17.16 10.055 1.7031 2.9609 2.6641 6.3633 2.6641 10.062z"/>
  <path d="m375.74 540.85c0 11.18-8.8789 20.141-19.824 20.141-10.953 0-19.832-8.9609-19.832-20.141 0-3.6992 0.96094-7.1055 2.7383-10.062 3.3281-6.0664 9.7617-10.055 17.094-10.055 7.3242 0 13.758 3.9883 17.16 10.055 1.7031 2.9609 2.6641 6.3633 2.6641 10.062z"/>
  <path d="m224.89 338.25h-63.406c0.73828 30.355 10.805 58.34 27.23 81.277l0.59375-0.37891c12.055-7.4727 26.926-13.758 43.207-18.277-4.8203-19.395-7.4102-40.785-7.625-62.621z"/>
  <path d="m444.18 338.32c-0.29688 13.551-2.5156 26.645-6.3633 39.004h-59.996c1.9961-12.363 2.9609-25.453 3.1094-39.004z"/>
  <path d="m232.44 268.45v-0.074218c-16.207-4.5938-30.93-10.812-43.059-18.359l-0.59375-0.375c-16.5 22.797-26.566 50.793-27.305 81.219h63.406c0.21484-22.074 2.8047-43.023 7.5508-62.41z"/>
  <path d="m416.36 250.02c-12.137 7.5547-26.934 13.762-43.133 18.359 0.074219 0.074219 0.074219 0.074219 0.074219 0.14844 4.8086 19.312 7.3984 40.336 7.6211 62.41h63.262c-0.73828-30.422-10.73-58.422-27.305-81.203z"/>
  <path d="m373.52 338.32c-0.14844 13.551-1.1836 26.645-3.1094 39.004h-74.871v14.445c-19.238 0.45312-37.953 2.8047-55.785 7.1719h-0.074218c-4.5078-18.277-7.1758-38.863-7.3984-60.691z"/>
  <path d="m366.12 270.22h-0.074219c-19.535 4.8164-40.988 7.4062-63.188 7.4062s-43.652-2.5898-63.188-7.4062v0.074219c-4.5078 18.203-7.1758 38.789-7.3984 60.559l141.23 0.074219c-0.22266-21.762-2.8867-42.34-7.3984-60.625l0.003906-0.082032z"/>
  <path d="m234.5 261.12c8.8789-31.25 22.793-54.551 39.359-67.145-1.7031 0.37891-3.3281 0.73828-4.957 1.1836-2.3672 0.59375-4.8086 1.2578-7.1758 1.9961-0.29688 0.074219-0.66406 0.15625-0.96094 0.30469-4.6602 1.3984-9.25 3.1094-13.688 5.1055-2.3672 1.043-4.6602 2.1523-6.957 3.25-2.293 1.1094-4.5156 2.3672-6.7344 3.625-10.879 6.2148-20.941 13.926-29.746 22.797-1.1094 1.043-2.2188 2.1523-3.1836 3.3359-2.5156 2.5977-4.8828 5.3281-7.1719 8.1484 11.395 7.0977 25.375 13.105 41.207 17.465v-0.066406z"/>
  <path d="m241.61 263.11c18.574 4.5195 39.285 7.1094 61.262 7.1094 21.895 0 42.762-2.5898 61.336-7.1094h0.074219c-11.84-41.594-33.594-70.18-58.746-72.027-0.89453-0.078126-1.7031-0.078126-2.5977-0.078126s-1.7773 0-2.6562 0.074219c-25.152 1.8516-46.832 30.438-58.672 72.031z"/>
  <path d="m371.38 261.12v0.074218c15.754-4.4414 29.672-10.367 40.988-17.465h0.074219c-3.0352-3.7734-6.2891-7.4805-9.8398-10.891-3.625-3.7734-7.4727-7.25-11.543-10.508-1.9961-1.6367-3.9961-3.1836-6.0586-4.6602-1.9961-1.4883-4.0703-2.9609-6.2148-4.293-2.1445-1.3477-4.293-2.6719-6.5117-3.9297-2.2188-1.2578-4.4414-2.5156-6.7344-3.625-2.293-1.0938-4.582-2.2109-6.875-3.25-2.3672-0.95312-4.7344-1.9297-7.1055-2.8125-2.1445-0.82031-4.293-1.5625-6.5117-2.2266-0.37109-0.21484-0.73828-0.30469-1.1094-0.37891-2.3594-0.73828-4.7344-1.3984-7.1719-1.9961-1.5547-0.45312-3.1836-0.80469-4.8086-1.1094 16.566 12.52 30.551 35.82 39.422 67.07z"/>
  <path d="m234.44 408.2c0-0.074219-0.074219-0.14844-0.074219-0.21484-15.836 4.4414-29.746 10.359-41.137 17.465 20.129 25.027 48.387 42.941 80.641 49.75-16.719-12.582-30.633-35.906-39.43-67z"/>
  <path d="m295.54 399.18v78.391c-23.086-4.8828-42.836-32.352-53.938-71.363v-0.074219c16.496-3.9922 34.633-6.5078 53.938-6.9531z"/>
  <path d="m161.41 338.25h0.074219c-0.074219-1.1875-0.074219-2.4453-0.074219-3.6289z"/>
  <path d="m161.41 330.85v3.7734c0-1.2578 0-2.5156 0.074219-3.7734z"/>
  <path d="m444.18 330.92c0.074218 1.1836 0.074218 2.4414 0.074218 3.6992v-3.6992z"/>
  <path d="m444.26 338.32v-3.6992c0 1.2578 0 2.4414-0.074218 3.6992z"/>
 </g>
</svg>